<svg width="284" height="327" viewBox="0 0 284 327" fill="none" xmlns="http://www.w3.org/2000/svg">
<path d="M141.643 0C63.4293 0 0 63.6128 0 142.053V175.018C0 175.018 21.5171 175.018 33.8598 175.018C47.3245 175.018 52.3407 175.018 70.8217 175.018C87.9826 175.018 92.0088 175.018 105.143 175.018C119.07 175.018 141.643 175.018 141.643 175.018H178.143H212.465H249.427H283.287V142.053C283.287 63.6128 219.923 0 141.643 0Z" fill="#D21F3C"/>
<path d="M0.0664062 212.484L34.3222 209.836V176.077L0.0664062 178.725V212.484Z" fill="#D21F3C"/>
<path d="M0.0664062 244.919L34.3222 237.638V212.484L0.0664062 219.765V244.919Z" fill="#D21F3C"/>
<path d="M0.0664062 286.621L34.3222 268.749V244.919L0.0664062 262.792V286.621Z" fill="#D21F3C"/>
<path d="M0.0664062 327L34.3222 297.874V280.664L0.0664062 309.128V327Z" fill="#D21F3C"/>
<path d="M35.5758 327L69.8316 297.874V280.664L35.5758 309.128V327Z" fill="#D21F3C"/>
<path d="M35.5758 286.621L69.8316 268.749V244.919L35.5758 262.792V286.621Z" fill="#D21F3C"/>
<path d="M35.5758 244.919L69.8316 237.638V212.484L35.5758 219.765V244.919Z" fill="#D21F3C"/>
<path d="M35.5758 212.484L69.8316 209.836V176.077L35.5758 178.725V212.484Z" fill="#D21F3C"/>
<path d="M71.0858 327L105.342 297.874V280.664L71.0858 309.128V327Z" fill="#D21F3C"/>
<path d="M71.0858 286.621L105.342 268.749V244.919L71.0858 262.792V286.621Z" fill="#D21F3C"/>
<path d="M71.0858 244.919L105.342 237.638V212.484L71.0858 219.765V244.919Z" fill="#D21F3C"/>
<path d="M71.0858 212.484L105.342 209.836V176.077L71.0858 178.725V212.484Z" fill="#D21F3C"/>
<path d="M106.596 327L140.785 297.874V280.664L106.596 309.128V327Z" fill="#D21F3C"/>
<path d="M106.596 286.621L140.785 268.749V244.919L106.596 262.792V286.621Z" fill="#D21F3C"/>
<path d="M106.596 244.919L140.785 237.638V212.484L106.596 219.765V244.919Z" fill="#D21F3C"/>
<path d="M106.596 212.484L140.785 209.836V176.077L106.596 178.725V212.484Z" fill="#D21F3C"/>
<path d="M249.031 209.836L283.287 212.484V178.725L249.031 176.077V209.836Z" fill="#D21F3C"/>
<path d="M249.031 237.638L283.287 244.919V219.765L249.031 212.484V237.638Z" fill="#D21F3C"/>
<path d="M249.031 268.749L283.287 286.621V262.792L249.031 244.919V268.749Z" fill="#D21F3C"/>
<path d="M249.031 297.874L283.287 327V309.128L249.031 280.664V297.874Z" fill="#D21F3C"/>
<path d="M213.521 297.874L247.777 327V309.128L213.521 280.664V297.874Z" fill="#D21F3C"/>
<path d="M213.521 268.749L247.777 286.621V262.792L213.521 244.919V268.749Z" fill="#D21F3C"/>
<path d="M213.521 237.638L247.777 244.919V219.765L213.521 212.484V237.638Z" fill="#D21F3C"/>
<path d="M213.521 209.836L247.777 212.484V178.725L213.521 176.077V209.836Z" fill="#D21F3C"/>
<path d="M178.011 297.874L212.267 327V309.128L178.011 280.664V297.874Z" fill="#D21F3C"/>
<path d="M178.011 268.749L212.267 286.621V262.792L178.011 244.919V268.749Z" fill="#D21F3C"/>
<path d="M178.011 237.638L212.267 244.919V219.765L178.011 212.484V237.638Z" fill="#D21F3C"/>
<path d="M178.011 209.836L212.267 212.484V178.725L178.011 176.077V209.836Z" fill="#D21F3C"/>
<path d="M142.567 297.874L176.757 327V309.128L142.567 280.664V297.874Z" fill="#D21F3C"/>
<path d="M142.567 268.749L176.757 286.621V262.792L142.567 244.919V268.749Z" fill="#D21F3C"/>
<path d="M142.567 237.638L176.757 244.919V219.765L142.567 212.484V237.638Z" fill="#D21F3C"/>
<path d="M142.567 209.836L176.757 212.484V178.725L142.567 176.077V209.836Z" fill="#D21F3C"/>
</svg>
