<svg width="433" height="568" viewBox="0 0 433 568" fill="none" xmlns="http://www.w3.org/2000/svg">
<path d="M215.8 0C97.2999 0 1.19995 96.1 1.19995 214.6V264.4C1.19995 264.4 33.8 264.4 52.5 264.4C72.9 264.4 80.5 264.4 108.5 264.4C134.5 264.4 140.6 264.4 160.5 264.4C181.6 264.4 215.8 264.4 215.8 264.4H271.1H323.1H379.1H430.4V214.6C430.4 96.1 334.4 0 215.8 0Z" fill="#D21F3C"/>
<path d="M1.30005 321L53.2 317V266L1.30005 270V321Z" fill="#D21F3C"/>
<path d="M1.30005 370L53.2 359V321L1.30005 332V370Z" fill="#D21F3C"/>
<path d="M1.30005 433L53.2 406V370L1.30005 397V433Z" fill="#D21F3C"/>
<path d="M1.30005 494L53.2 450V424L1.30005 467V494Z" fill="#D21F3C"/>
<path d="M55.0999 494L107 450V424L55.0999 467V494Z" fill="#D21F3C"/>
<path d="M55.0999 433L107 406V370L55.0999 397V433Z" fill="#D21F3C"/>
<path d="M55.0999 370L107 359V321L55.0999 332V370Z" fill="#D21F3C"/>
<path d="M55.0999 321L107 317V266L55.0999 270V321Z" fill="#D21F3C"/>
<path d="M108.9 494L160.8 450V424L108.9 467V494Z" fill="#D21F3C"/>
<path d="M108.9 433L160.8 406V370L108.9 397V433Z" fill="#D21F3C"/>
<path d="M108.9 370L160.8 359V321L108.9 332V370Z" fill="#D21F3C"/>
<path d="M108.9 321L160.8 317V266L108.9 270V321Z" fill="#D21F3C"/>
<path d="M162.7 494L214.5 450V424L162.7 467V494Z" fill="#D21F3C"/>
<path d="M162.7 433L214.5 406V370L162.7 397V433Z" fill="#D21F3C"/>
<path d="M162.7 370L214.5 359V321L162.7 332V370Z" fill="#D21F3C"/>
<path d="M162.7 321L214.5 317V266L162.7 270V321Z" fill="#D21F3C"/>
<path d="M378.5 317L430.4 321V270L378.5 266V317Z" fill="#D21F3C"/>
<path d="M378.5 359L430.4 370V332L378.5 321V359Z" fill="#D21F3C"/>
<path d="M378.5 406L430.4 433V397L378.5 370V406Z" fill="#D21F3C"/>
<path d="M378.5 450L430.4 494V467L378.5 424V450Z" fill="#D21F3C"/>
<path d="M324.7 450L376.6 494V467L324.7 424V450Z" fill="#D21F3C"/>
<path d="M324.7 406L376.6 433V397L324.7 370V406Z" fill="#D21F3C"/>
<path d="M324.7 359L376.6 370V332L324.7 321V359Z" fill="#D21F3C"/>
<path d="M324.7 317L376.6 321V270L324.7 266V317Z" fill="#D21F3C"/>
<path d="M270.9 450L322.8 494V467L270.9 424V450Z" fill="#D21F3C"/>
<path d="M270.9 406L322.8 433V397L270.9 370V406Z" fill="#D21F3C"/>
<path d="M270.9 359L322.8 370V332L270.9 321V359Z" fill="#D21F3C"/>
<path d="M270.9 317L322.8 321V270L270.9 266V317Z" fill="#D21F3C"/>
<path d="M217.2 450L269 494V467L217.2 424V450Z" fill="#D21F3C"/>
<path d="M217.2 406L269 433V397L217.2 370V406Z" fill="#D21F3C"/>
<path d="M217.2 359L269 370V332L217.2 321V359Z" fill="#D21F3C"/>
<path d="M217.2 317L269 321V270L217.2 266V317Z" fill="#D21F3C"/>
<path d="M48 503.8H21.4L0 522.6V566.4H48C66.1 566.4 80.7 552.4 80.7 535.1C80.7 517.8 66 503.8 48 503.8ZM46.6 547.9H21.4V522.3H46.6C53.7 522.3 59.4 528 59.4 535.1C59.4 542.2 53.6 547.9 46.6 547.9Z" fill="white"/>
<path d="M104.7 503.8H83.3V566.4H104.7V503.8Z" fill="white"/>
<path d="M171.7 528.6H131.6C129.9 528.6 128.5 527.2 128.5 525.5C128.5 523.8 129.9 522.4 131.6 522.4H175.9L190.1 503.9H128.1C117 503.9 108 512.4 108 522.8C108 533.2 117 541.7 128.1 541.7H167.8C169.5 541.7 170.9 543.1 170.9 544.8C170.9 546.5 169.5 547.9 167.8 547.9H121.1L106.9 566.4H171.7C182.8 566.4 191.8 557.9 191.8 547.5C191.8 537 182.8 528.6 171.7 528.6Z" fill="white"/>
<path d="M250.8 528.6H210.7C209 528.6 207.6 527.2 207.6 525.5C207.6 523.8 209 522.4 210.7 522.4H255L269.2 503.9H207.2C196.1 503.9 187.1 512.4 187.1 522.8C187.1 533.2 196.1 541.7 207.2 541.7H246.9C248.6 541.7 250 543.1 250 544.8C250 546.5 248.6 547.9 246.9 547.9H200.2L186 566.4H250.8C261.9 566.4 270.9 557.9 270.9 547.5C270.9 537 261.9 528.6 250.8 528.6Z" fill="white"/>
<path d="M334.5 542.9C334.5 546.3 325.6 550 314.6 550C303.6 550 294.7 546.2 294.7 542.9V503.8H273.3V543.9C273.3 544.2 273.3 545.5 273.3 545.8C274.2 557.8 292.3 567.4 314.6 567.4C336.9 567.4 355.1 557.8 355.9 545.8C355.9 545.5 355.9 544.2 355.9 543.9V503.8H334.5V542.9Z" fill="white"/>
<path d="M413.8 503.8V537.4L410.9 534.9L377.7 506.6L376.4 505.5C374.7 504 372.5 503 370.2 502.8C369.9 502.8 369.7 502.8 369.4 502.8C366.4 502.8 363.7 504 361.7 506C359.7 508 358.5 510.7 358.5 513.7V566.3H378V533.3L380.4 535.3L414.5 564.4L415 564.8C416.9 566.3 419.2 567.2 421.8 567.2C424.8 567.2 427.5 566 429.5 564C431.5 562 432.7 559.3 432.7 556.3V520.2L413.8 503.8Z" fill="white"/>
</svg>
