<svg width="120" height="32" viewBox="0 0 120 32" fill="none" xmlns="http://www.w3.org/2000/svg">
<g clip-path="url(#clip0_17_38)">
<path d="M24.2743 6.96106L16.7314 17.7143L9.17143 6.96106H0L12.1371 24.2424H21.3086L33.4457 6.96106H24.2743Z" fill="#111114"/>
<path d="M88.663 6.96106L81.103 17.7143L73.5601 6.96106H64.3887L76.5258 24.2424L71.0744 32H80.2458L97.8344 6.96106H88.663Z" fill="#111114"/>
<path d="M44.3311 6.96106L56.4682 24.2424H65.6396L53.5025 6.96106H44.3311Z" fill="#111114"/>
<path d="M63.5318 6.96106H54.3604L66.4975 24.2424H75.6689L63.5318 6.96106Z" fill="#111114"/>
<path d="M34.3032 6.96106L22.166 24.2424H31.3374L38.8974 13.5065L46.4403 24.2424H55.6117L43.4746 6.96106H34.3032Z" fill="#111114"/>
<path d="M120 24.2424L107.863 6.96106H98.6918L86.5547 24.2424H95.7261L103.269 13.5065L110.829 24.2424H120Z" fill="#111114"/>
<path d="M58.3376 6.11255L54.0518 0H44.8633L49.1661 6.11255H58.3376Z" fill="#111114"/>
<path d="M68.3659 6.11255L64.0802 0H54.8916L59.1945 6.11255H68.3659Z" fill="#ED0F35"/>
</g>
<defs>
<clipPath id="clip0_17_38">
<rect width="120" height="32" fill="white"/>
</clipPath>
</defs>
</svg>
